# xmcd
#
# Track frame offsets:
#	150
#	11424
#	24446
#	33489
#	44911
#	59209
#	73427
#	87753
#	101507
#	113593
#	128377
#	147413
#	158277
#	170371
#	180830
#
# Disc length: 2581 seconds
#
# Revision: 1
# Processed by: cddbd v1.5.2PL0 Copyright (c) Steve Scherf et al.
# Submitted via: audiograbber 1.83.01
#
DISCID=c00a130f
DTITLE=VA - Als Mama noch ein Teenie war CD 1
DYEAR=1900
DGENRE=Schlager
TTITLE0=Bonney, Graham - Supergirl (dt.)
TTITLE1=Valente, Caterina - Ganz Paris träumt von der Liebe
TTITLE2=Vaughn, Billy - Wheels
TTITLE3=Sauer, Wolfgang - Buona Sera
TTITLE4=Harald's Sunshine - Rote Lippen soll man küssen
TTITLE5=Johns, Bibi - Bella Bimba
TTITLE6=Backus, Gus - Tom Dooley
TTITLE7=Mona and die falschen 50er - Downtown
TTITLE8=Herold, Ted - Moonlight
TTITLE9=Schuricke, Rudi - Capri Fischer
TTITLE10=Deutscher, Drafi - Welche Farbe hat die Welt
TTITLE11=Kuhn, Paul - Der Mann am Klavier
TTITLE12=Flippers, Die - Weine nicht, kleine Eva
TTITLE13=Beil, Peter - Hello, Mary-Lou
TTITLE14=Bertelmann, Fred - Der lachende Vagabund
EXTD=
EXTT0=
EXTT1=
EXTT2=
EXTT3=
EXTT4=
EXTT5=
EXTT6=
EXTT7=
EXTT8=
EXTT9=
EXTT10=
EXTT11=
EXTT12=
EXTT13=
EXTT14=
PLAYORDER=
